<svg width="15" height="13" viewBox="0 0 15 13" fill="none" xmlns="http://www.w3.org/2000/svg">
<path d="M1.56592 0.625C0.827637 0.625 0.253418 1.22656 0.253418 1.9375V11.5625C0.253418 12.3008 0.827637 12.875 1.56592 12.875H12.9409C13.6519 12.875 14.2534 12.3008 14.2534 11.5625V1.9375C14.2534 1.22656 13.6519 0.625 12.9409 0.625H1.56592ZM1.56592 1.5H4.46436C4.54639 1.5 4.62842 1.58203 4.62842 1.66406V2.21094C4.62842 2.32031 4.54639 2.375 4.46436 2.375H1.29248C1.18311 2.375 1.12842 2.32031 1.12842 2.21094V1.9375C1.12842 1.71875 1.31982 1.5 1.56592 1.5ZM13.2144 4.125H1.29248C1.18311 4.125 1.12842 4.07031 1.12842 3.96094V2.97656C1.12842 2.89453 1.18311 2.8125 1.29248 2.8125H5.06592L5.88623 1.58203C5.91357 1.52734 5.96826 1.5 6.02295 1.5H12.9409C13.1597 1.5 13.3784 1.71875 13.3784 1.9375V3.96094C13.3784 4.07031 13.2964 4.125 13.2144 4.125ZM7.25342 11.3438C5.42139 11.3438 3.97217 9.89453 3.97217 8.0625C3.97217 6.25781 5.42139 4.78125 7.25342 4.78125C9.05811 4.78125 10.5347 6.25781 10.5347 8.0625C10.5347 9.89453 9.05811 11.3438 7.25342 11.3438ZM7.25342 5.65625C5.91357 5.65625 4.84717 6.75 4.84717 8.0625C4.84717 9.40234 5.91357 10.4688 7.25342 10.4688C8.56592 10.4688 9.65967 9.40234 9.65967 8.0625C9.65967 6.75 8.56592 5.65625 7.25342 5.65625ZM5.94092 8.5C5.69482 8.5 5.50342 8.30859 5.50342 8.0625C5.50342 7.10547 6.26904 6.3125 7.25342 6.3125C7.47217 6.3125 7.69092 6.53125 7.69092 6.75C7.69092 6.99609 7.47217 7.1875 7.25342 7.1875C6.76123 7.1875 6.37842 7.59766 6.37842 8.0625C6.37842 8.30859 6.15967 8.5 5.94092 8.5Z" fill="#037DD6"/>
</svg>
