<svg width="28" height="37" viewBox="0 0 28 37" fill="none" xmlns="http://www.w3.org/2000/svg">
<path d="M27.8628 8.89648C27.8628 8.47461 27.6519 8.05273 27.3003 7.70117L20.48 0.880859C20.1284 0.529297 19.7065 0.318359 19.2847 0.318359H18.8628V9.31836H27.8628V8.89648ZM18.3003 11.5684C17.3159 11.5684 16.6128 10.8652 16.6128 9.88086V0.318359H2.55029C1.56592 0.318359 0.862793 1.0918 0.862793 2.00586V34.6309C0.862793 35.6152 1.56592 36.3184 2.55029 36.3184H26.1753C27.0894 36.3184 27.8628 35.6152 27.8628 34.6309V11.5684H18.3003ZM8.73779 12.6934C10.6362 12.6934 12.1128 14.2402 12.1128 16.0684C12.1128 17.9668 10.6362 19.4434 8.73779 19.4434C6.90967 19.4434 5.36279 17.9668 5.36279 16.0684C5.36279 14.2402 6.90967 12.6934 8.73779 12.6934ZM23.3628 29.5684H5.36279L5.43311 26.1934L8.17529 23.3809C8.52686 23.0996 9.01904 23.0996 9.37061 23.4512L12.1128 26.1934L19.4253 18.9512C19.7065 18.5996 20.269 18.5996 20.6206 18.9512L23.3628 21.6934V29.5684Z" fill="#037DD6"/>
</svg>
